<svg class="svg-icon" style="width: 1em; height: 1em;vertical-align: middle;fill: currentColor;overflow: hidden;" viewBox="0 0 1024 1024" version="1.1" xmlns="http://www.w3.org/2000/svg"><path d="M863.744 958.464c-58.88 0-107.008-48.128-107.008-107.008s48.128-107.008 107.008-107.008 107.008 48.128 107.008 107.008-48.128 107.008-107.008 107.008z m0-162.816c-30.72 0-55.808 25.088-55.808 55.808s25.088 55.808 55.808 55.808 55.808-25.088 55.808-55.808-25.088-55.808-55.808-55.808z"  /><path d="M862.208 783.36c-14.336 0-25.6-11.264-25.6-25.6v-29.184c0-14.336 11.264-25.6 25.6-25.6s25.6 11.264 25.6 25.6v29.184c0 14.336-11.264 25.6-25.6 25.6zM796.16 811.52c-6.656 0-13.312-2.56-18.432-7.68l-20.48-20.992c-9.728-10.24-9.728-26.112 0.512-36.352 10.24-9.728 26.112-9.728 36.352 0.512l20.48 20.992c9.728 10.24 9.728 26.112-0.512 36.352-5.12 4.608-11.264 7.168-17.92 7.168zM769.024 878.592h-28.672c-14.336 0-25.6-11.264-25.6-25.6s11.264-25.6 25.6-25.6h28.672c14.336 0 25.6 11.264 25.6 25.6s-11.264 25.6-25.6 25.6zM776.192 965.632c-6.656 0-13.312-2.56-18.432-7.68-9.728-10.24-9.728-26.112 0.512-36.352l20.992-20.48c10.24-9.728 26.112-9.728 36.352 0.512 9.728 10.24 9.728 26.112-0.512 36.352l-20.992 20.48c-5.12 4.608-11.264 7.168-17.92 7.168zM865.28 1001.472c-14.336 0-25.6-11.264-25.6-25.6v-29.184c0-14.336 11.264-25.6 25.6-25.6s25.6 11.264 25.6 25.6v29.184c0 14.336-11.264 25.6-25.6 25.6zM951.808 964.608c-6.656 0-13.312-2.56-17.92-7.68l-20.992-20.992c-10.24-10.24-10.24-26.112 0-36.352s26.112-10.24 36.352 0l20.992 20.992c10.24 10.24 10.24 26.112 0 36.352-5.12 5.12-11.776 7.68-18.432 7.68zM987.136 876.544h-28.672c-14.336 0-25.6-11.264-25.6-25.6s11.264-25.6 25.6-25.6h28.672c14.336 0 25.6 11.264 25.6 25.6s-11.264 25.6-25.6 25.6zM930.304 811.008c-6.656 0-12.8-2.56-17.92-7.168-10.24-9.728-10.24-26.112-0.512-36.352l20.992-21.504c9.728-10.24 26.112-10.24 36.352-0.512s10.24 26.112 0.512 36.352l-20.992 21.504c-5.12 5.12-11.776 7.68-18.432 7.68z"  /><path d="M675.84 1024H237.568c-14.336 0-25.6-11.264-25.6-25.6V180.224c0-14.336 11.264-25.6 25.6-25.6H849.92c14.336 0 25.6 11.264 25.6 25.6v435.2c0 14.336-11.264 25.6-25.6 25.6s-25.6-11.264-25.6-25.6v-409.6H263.168V972.8H675.84c14.336 0 25.6 11.264 25.6 25.6s-11.264 25.6-25.6 25.6z"  /><path d="M237.568 886.272H101.376c-14.336 0-25.6-11.264-25.6-25.6V35.84c0-14.336 11.264-25.6 25.6-25.6h573.952c14.336 0 25.6 11.264 25.6 25.6v144.896c0 14.336-11.264 25.6-25.6 25.6s-25.6-11.264-25.6-25.6V61.44H126.976v773.632h110.592c14.336 0 25.6 11.264 25.6 25.6s-11.264 25.6-25.6 25.6z"  /><path d="M715.776 408.576H371.712c-14.336 0-25.6-11.264-25.6-25.6s11.264-25.6 25.6-25.6h344.064c14.336 0 25.6 11.264 25.6 25.6s-11.264 25.6-25.6 25.6zM715.776 611.328H371.712c-14.336 0-25.6-11.264-25.6-25.6s11.264-25.6 25.6-25.6h344.064c14.336 0 25.6 11.264 25.6 25.6s-11.264 25.6-25.6 25.6zM578.048 814.592H371.712c-14.336 0-25.6-11.264-25.6-25.6s11.264-25.6 25.6-25.6h206.336c14.336 0 25.6 11.264 25.6 25.6s-11.264 25.6-25.6 25.6z"  /></svg>